<?xml version="1.0" encoding="UTF-8"?>
<!DOCTYPE svg PUBLIC "-//W3C//DTD SVG 1.1//EN" "http://www.w3.org/Graphics/SVG/1.1/DTD/svg11.dtd">
<svg xmlns="http://www.w3.org/2000/svg" version="1.1" width="192px" height="192px" style="shape-rendering:geometricPrecision; text-rendering:geometricPrecision; image-rendering:optimizeQuality; fill-rule:evenodd; clip-rule:evenodd" xmlns:xlink="http://www.w3.org/1999/xlink">
<g><path style="opacity:1" fill="#f7f6f6" d="M 105.5,178.5 C 101.166,174.492 98.9989,169.492 99,163.5C 98.1011,153.107 98.4344,142.773 100,132.5C 103.365,126.129 107.865,120.629 113.5,116C 120.727,111.225 128.06,106.725 135.5,102.5C 146.128,108.689 151.628,105.689 152,93.5C 149.367,88.2685 145.201,86.4351 139.5,88C 135.507,90.8194 133.84,94.6527 134.5,99.5C 120.589,104.125 108.589,111.792 98.5,122.5C 96.8742,113.678 97.3742,105.012 100,96.5C 106.669,88.3334 113.502,80.3334 120.5,72.5C 131.698,76.4655 136.532,72.4655 135,60.5C 131.692,56.6729 127.526,55.5063 122.5,57C 118.961,60.3868 117.628,64.5534 118.5,69.5C 111.562,75.9366 104.729,82.6033 98,89.5C 96.8899,76.8567 96.3899,64.19 96.5,51.5C 101.662,50.0487 104.329,46.5487 104.5,41C 103.563,35.7673 100.396,32.934 95,32.5C 86.5987,34.5286 84.2654,39.5286 88,47.5C 89.451,49.4641 91.2843,50.7974 93.5,51.5C 92.8968,64.4917 92.3968,77.4917 92,90.5C 84.7119,83.1356 77.2119,76.1356 69.5,69.5C 70.8419,59.3409 66.5086,55.1743 56.5,57C 50.2437,61.9526 49.9104,67.2859 55.5,73C 59.5726,74.934 63.5726,74.7673 67.5,72.5C 73.7973,79.2982 80.2973,85.9648 87,92.5C 88.5862,94.6705 89.9196,97.0038 91,99.5C 91.6667,107.167 91.6667,114.833 91,122.5C 80.8936,112.195 69.0603,104.528 55.5,99.5C 55.7396,90.5756 51.4063,86.7422 42.5,88C 35.8333,93.6667 35.8333,99.3333 42.5,105C 46.7831,106.187 50.4497,105.353 53.5,102.5C 65.1069,108.223 75.6069,115.556 85,124.5C 87.0937,126.921 88.7604,129.588 90,132.5C 91.5951,143.093 91.9284,153.76 91,164.5C 90.2905,170.26 87.7905,174.926 83.5,178.5C 79.6249,178.915 75.9582,178.415 72.5,177C 79.3163,171.54 83.1496,164.373 84,155.5C 86.6473,144.235 83.814,134.735 75.5,127C 72.5507,125.239 69.384,124.072 66,123.5C 49.736,133.008 35.0693,131.008 22,117.5C 13.7649,104.391 13.4315,91.0576 21,77.5C 24.035,74.1298 27.3683,71.1298 31,68.5C 33.2835,49.8835 43.7835,39.7169 62.5,38C 69.5549,18.9651 83.2216,10.9651 103.5,14C 116.096,17.5969 124.43,25.5969 128.5,38C 147.215,39.7149 157.715,49.8816 160,68.5C 176.227,80.7421 179.893,96.0754 171,114.5C 162.116,126.69 150.283,131.19 135.5,128C 121.581,120.694 111.748,124.527 106,139.5C 104.532,149.883 105.865,159.883 110,169.5C 111.833,172.667 114.333,175.167 117.5,177C 113.703,178.424 109.703,178.924 105.5,178.5 Z"/></g>
<g><path style="opacity:1" fill="#f17711" d="M 96.5,51.5 C 95.5,51.5 94.5,51.5 93.5,51.5C 91.2843,50.7974 89.451,49.4641 88,47.5C 84.2654,39.5286 86.5987,34.5286 95,32.5C 100.396,32.934 103.563,35.7673 104.5,41C 104.329,46.5487 101.662,50.0487 96.5,51.5 Z"/></g>
<g><path style="opacity:1" fill="#272626" d="M 93.5,51.5 C 94.5,51.5 95.5,51.5 96.5,51.5C 96.3899,64.19 96.8899,76.8567 98,89.5C 104.729,82.6033 111.562,75.9366 118.5,69.5C 119.401,70.2905 120.068,71.2905 120.5,72.5C 113.502,80.3334 106.669,88.3334 100,96.5C 97.3742,105.012 96.8742,113.678 98.5,122.5C 108.589,111.792 120.589,104.125 134.5,99.5C 135.404,100.209 135.737,101.209 135.5,102.5C 128.06,106.725 120.727,111.225 113.5,116C 107.865,120.629 103.365,126.129 100,132.5C 98.4344,142.773 98.1011,153.107 99,163.5C 98.9989,169.492 101.166,174.492 105.5,178.5C 98.1667,178.5 90.8333,178.5 83.5,178.5C 87.7905,174.926 90.2905,170.26 91,164.5C 91.9284,153.76 91.5951,143.093 90,132.5C 88.7604,129.588 87.0937,126.921 85,124.5C 75.6069,115.556 65.1069,108.223 53.5,102.5C 53.9321,101.29 54.5987,100.29 55.5,99.5C 69.0603,104.528 80.8936,112.195 91,122.5C 91.6667,114.833 91.6667,107.167 91,99.5C 89.9196,97.0038 88.5862,94.6705 87,92.5C 80.2973,85.9648 73.7973,79.2982 67.5,72.5C 67.427,70.9731 68.0937,69.9731 69.5,69.5C 77.2119,76.1356 84.7119,83.1356 92,90.5C 92.3968,77.4917 92.8968,64.4917 93.5,51.5 Z"/></g>
<g><path style="opacity:1" fill="#f27910" d="M 69.5,69.5 C 68.0937,69.9731 67.427,70.9731 67.5,72.5C 63.5726,74.7673 59.5726,74.934 55.5,73C 49.9104,67.2859 50.2437,61.9526 56.5,57C 66.5086,55.1743 70.8419,59.3409 69.5,69.5 Z"/></g>
<g><path style="opacity:1" fill="#f2780d" d="M 120.5,72.5 C 120.068,71.2905 119.401,70.2905 118.5,69.5C 117.628,64.5534 118.961,60.3868 122.5,57C 127.526,55.5063 131.692,56.6729 135,60.5C 136.532,72.4655 131.698,76.4655 120.5,72.5 Z"/></g>
<g><path style="opacity:1" fill="#f27810" d="M 55.5,99.5 C 54.5987,100.29 53.9321,101.29 53.5,102.5C 50.4497,105.353 46.7831,106.187 42.5,105C 35.8333,99.3333 35.8333,93.6667 42.5,88C 51.4063,86.7422 55.7396,90.5756 55.5,99.5 Z"/></g>
<g><path style="opacity:1" fill="#f1770c" d="M 135.5,102.5 C 135.737,101.209 135.404,100.209 134.5,99.5C 133.84,94.6527 135.507,90.8194 139.5,88C 145.201,86.4351 149.367,88.2685 152,93.5C 151.628,105.689 146.128,108.689 135.5,102.5 Z"/></g>
</svg>
